<svg viewBox="0 0 512 512" xmlns="http://www.w3.org/2000/svg"><path d="m109.726562 471.785156v-17.785156h26.980469v17.785156c0 3.160156 2.570313 5.734375 5.734375 5.734375h52.410156v-119.78125l44.753907-44.320312v-252.703125h-41.691407v-31.121094h-48.695312v-22.09375h-48.699219v22.09375h-48.699219v109.925781h-22.160156l-22.160156 23.082031v150.597657l44.320312 44.753906v146.546875h90.621094c-18.039062 0-32.714844-14.675781-32.714844-32.714844zm0 0" fill="#ffdaaa"/><path d="m108.105469 408h90.894531v46h-90.894531zm0 0" fill="#ff9478"/><path d="m476.71875 64.070312h-147.9375l-27.78125 27.78125v186.402344l27.78125 27.777344h20.320312v27.992188h26.980469v-27.992188h20.363281v165.753906c0 3.164063-2.570312 5.734375-5.730468 5.734375h-248.273438c-3.160156 0-5.734375-2.570312-5.734375-5.734375v-17.785156h-26.980469v17.785156c0 18.039063 14.675782 32.714844 32.714844 32.714844h248.273438c18.039062 0 32.714844-14.675781 32.714844-32.714844v-165.753906h53.292968c10.847656-10.847656 16.929688-16.929688 27.78125-27.78125v-186.398438c-10.851562-10.847656-16.933594-16.929687-27.785156-27.78125zm0 0" fill="#ff7956"/><path d="m483.117188 207.550781c0-27.816406-50.367188-95.699219-50.367188-95.699219s-50.367188 67.882813-50.367188 95.699219c0 27.8125 22.550782 50.363281 50.367188 50.363281s50.367188-22.550781 50.367188-50.363281zm0 0" fill="#ff3f62"/><path d="m78.105469 408h90.894531v46h-90.894531zm0 0" fill="#fff"/><path d="m320.851562 334.023438h75.59375v-27.992188h-20.363281v27.992188h-26.980469v-27.992188h-20.320312l-27.78125-27.78125v35.925781c7.753906 7.75 12.097656 12.097657 19.851562 19.847657zm0 0" fill="#d1e7f8"/><path d="m476.71875 306.03125h-53.292969v27.992188h61.222657l19.851562-19.847657v-35.925781c-10.847656 10.851562-16.929688 16.933594-27.78125 27.78125zm0 0" fill="#d1e7f8"/><path d="m484.648438 36.078125h-28.636719l-15.3125-28.578125h-75.898438l-15.316406 28.578125h-28.632813l-19.851562 19.851563v35.921874l27.78125-27.78125h147.9375c10.851562 10.851563 16.933594 16.933594 27.78125 27.78125v-35.921874c-7.753906-7.753907-12.097656-12.097657-19.851562-19.851563zm0 0" fill="#d1e7f8"/><path d="m453.117188 207.550781c0-27.816406-50.367188-95.699219-50.367188-95.699219s-50.367188 67.882813-50.367188 95.699219c0 27.8125 22.550782 50.363281 50.367188 50.363281s50.367188-22.550781 50.367188-50.363281zm0 0" fill="#ff5023"/><path d="m37.5 313.199219v-150.597657l22.160156-23.082031h22.160156v-109.925781h-30v109.925781h-22.160156l-22.160156 23.082031v150.597657l44.320312 44.753906v146.546875h30v-146.546875zm0 0" fill="#ff9478"/><path d="m100.519531 7.5h30v22.09375h-30zm0 0" fill="#ff9478"/><path d="m166.707031 471.785156v-17.785156h-26.980469v17.785156c0 1.789063.144532 3.542969.421876 5.253906.703124.308594 1.480468.480469 2.292968.480469h30c-3.160156 0-5.734375-2.574219-5.734375-5.734375zm0 0" fill="#ff9478"/><path d="m140.148438 477.039062c-2.023438-.882812-3.441407-2.90625-3.441407-5.253906v-17.785156h-26.980469v17.785156c0 18.039063 14.675782 32.714844 32.714844 32.714844h30c-16.25 0-29.769531-11.910156-32.292968-27.460938zm0 0" fill="#ff3f62"/><path d="m423.425781 306.03125h-17.34375v27.992188h-9.636719v137.761718c0 3.160156-2.570312 5.734375-5.730468 5.734375h30c.8125 0 1.589844-.171875 2.289062-.480469.277344-1.710937.421875-3.464843.421875-5.253906zm0 0" fill="#ff3f62"/><path d="m349.101562 306.03125v27.992188h26.980469v-27.992188h-17.300781l-27.78125-27.78125v-186.398438l27.78125-27.78125h-30l-27.78125 27.78125v186.398438l27.78125 27.78125zm0 0" fill="#ff3f62"/><path d="m78.105469 408h30v46h-30zm0 0" fill="#e0e0e2"/><g fill="#9bc9ff"><path d="m504.5 278.25c-10.847656 10.851562-16.929688 16.933594-27.78125 27.78125h27.78125zm0 0"/><path d="m504.5 91.851562v-27.78125h-27.78125c10.851562 10.851563 16.933594 16.933594 27.78125 27.78125zm0 0"/><path d="m331 64.070312v-8.140624l19.851562-19.851563h28.632813l15.316406-28.578125h-30l-15.316406 28.578125h-28.632813l-19.851562 19.851563v35.921874l27.78125-27.78125zm0 0"/><path d="m426.445312 306.03125h26.980469v27.992188h-26.980469zm0 0"/><path d="m331 314.175781v-8.144531h-2.21875l-27.78125-27.78125v35.925781c7.753906 7.75 12.097656 12.097657 19.851562 19.847657h28.25v-1.746094c-6.699218-6.699219-10.953124-10.953125-18.101562-18.101563zm0 0"/><path d="m379.101562 306.03125h17.34375v27.992188h-17.34375zm0 0"/></g><path d="m382.382812 207.550781c0-17.757812 20.523438-51.835937 35.367188-74.167969-8.410156-12.652343-15-21.53125-15-21.53125s-50.367188 67.878907-50.367188 95.699219c0 27.8125 22.550782 50.363281 50.367188 50.363281 5.222656 0 10.261719-.796874 15-2.269531-20.488281-6.386719-35.367188-25.503906-35.367188-48.09375zm0 0" fill="#c70024"/><path d="m177.570312 228.730469-31.644531 31.644531v73.648438h15v-67.433594l27.25-27.25zm0 0"/><path d="m207.105469 234.882812h15v68.109376h-15zm0 0" fill="#fff"/><path d="m207.105469 184.882812h15v15h-15zm0 0" fill="#fff"/><path d="m207.105469 209.882812h15v15h-15zm0 0" fill="#fff"/><path d="m487.757812 28.578125h-27.253906l-15.3125-28.578125h-84.882812l-15.3125 28.578125h-27.253906l-24.242188 24.242187v264.460938l24.242188 24.242188h71.203124v128.496093h-244.738281v-8.519531h32.292969v-61h-105.894531v61h31.621093v10.285156c0 22.175782 18.042969 40.214844 40.214844 40.214844h248.273438c22.171875 0 40.214844-18.039062 40.214844-40.214844v-130.261718h56.828124l24.242188-24.242188v-264.460938zm-146.15625 297.945313h-17.644531l-15.457031-15.457032v-14.707031l17.175781 17.171875h15.925781zm41.980469 0v-12.992188h5.363281v12.992188zm-297.976562 119.976562v-31h75.894531v31zm345.320312-119.976562v-12.992188h18.25v12.992188zm66.074219-30.164063v14.707031l-15.457031 15.457032h-17.367188v-12.992188h15.648438zm0-21.214844-23.386719 23.386719h-57.6875v173.253906c0 13.902344-11.3125 25.214844-25.214843 25.214844h-248.269532c-13.902344 0-25.214844-11.3125-25.214844-25.214844v-10.285156h11.980469v10.285156c0 7.296875 5.9375 13.234375 13.234375 13.234375h248.269532c7.296874 0 13.234374-5.9375 13.234374-13.234375v-173.253906h-35.363281v27.992188h-11.980469v-27.992188h-20.320312v-204.460938h-15v193.855469l-12.78125-12.78125v-180.1875l23.386719-23.386719h141.726562l23.386719 23.386719zm-17.175781-218.574219h-154.148438l-17.175781 17.175782v-14.710938l15.457031-15.457031h104.414063v-15h-66.355469l7.273437-13.578125h66.921876l15.3125 28.578125h30.023437l15.453125 15.457031v14.710938zm0 0"/><path d="m402.75 99.265625-6.023438 8.117187c-5.304687 7.152344-51.84375 70.722657-51.84375 100.167969 0 31.90625 25.960938 57.863281 57.867188 57.863281s57.867188-25.957031 57.867188-57.863281c0-29.445312-46.539063-93.015625-51.84375-100.167969zm0 151.148437c-23.636719 0-42.867188-19.226562-42.867188-42.863281 0-18.167969 27-60.324219 42.867188-82.875 15.867188 22.546875 42.867188 64.691407 42.867188 82.875 0 23.636719-19.230469 42.863281-42.867188 42.863281zm0 0"/><path d="m395.25 178.160156v20.4375h-20.4375v15h20.4375v20.4375h15v-20.4375h20.4375v-15h-20.4375v-20.4375zm0 0"/><path d="m469.21875 124.070312h15v15h-15zm0 0" fill="#fff"/><path d="m469.21875 99.070312h15v15h-15zm0 0" fill="#fff"/><path d="m469.21875 149.070312h15v121.960938h-15zm0 0" fill="#fff"/><path d="m59.320312 365.453125h57.484376v-15h-61.859376l-39.945312-40.339844v-144.496093l17.855469-18.597657h11.464843v73.425781l27.78125 27.785157v24.671875h15v-30.886719l-27.78125-27.78125v-72.1875h21.199219v-15h-21.199219v-40.132813h21.199219v-15h-21.199219v-34.820312h33.699219v137.148438h15v-47.796876h21.199219v-15h-21.199219v-40.132812h21.199219v-15h-21.199219v-41.3125h33.699219v159.242188h15v-35.136719h21.199219v-15h-21.199219v-40.132813h21.199219v-15h-21.199219v-31.878906h33.699219v137.148438h15v-30.417969h14.1875v-15h-14.1875v-22.691407h14.1875v-15h-14.1875v-22.917968h26.6875v242.074218l-44.75 44.320313v102.910156h15v-96.65625l44.75-44.316406v-263.332031h-41.6875v-31.121094h-48.699219v-22.09375h-63.699219v22.09375h-48.699219v109.925781h-17.855468l-26.464844 27.5625v156.703125l44.320312 44.753906v150.960938h56.832032v-15h-41.832032zm0 0"/></svg>